HIERARCHY
ROOT hip
{
	OFFSET 0.000000 0.000000 0.000000
	CHANNELS 6 Xposition Yposition Zposition Xrotation Zrotation Yrotation 
	JOINT abdomen
	{
		OFFSET 0.000000 3.422050 0.000000
		CHANNELS 3 Xrotation Zrotation Yrotation 
		JOINT chest
		{
			OFFSET 0.000000 8.486693 -0.6844110
			CHANNELS 3 Xrotation Zrotation Yrotation 
			JOINT neck
			{
				OFFSET 0.000000 10.26616 -0.2737640
				CHANNELS 3 Xrotation Zrotation Yrotation 
				JOINT head
				{
					OFFSET 0.000000 3.148285 0.000000
					CHANNELS 3 Xrotation Zrotation Yrotation 
					End Site
					{
						OFFSET 0.000000 3.148289 0.000000
					}
				}
			}
			JOINT lCollar
			{
				OFFSET 3.422053 6.707223 -0.8212930
				CHANNELS 3 Yrotation Zrotation Xrotation 
				JOINT lShldr
				{
					OFFSET 3.285171 0.000000 0.000000
					CHANNELS 3 Zrotation Yrotation Xrotation 
					JOINT lForeArm
					{
						OFFSET 10.12928 0.000000 0.000000
						CHANNELS 3 Yrotation Zrotation Xrotation 
						JOINT lHand
						{
							OFFSET 8.486692 0.000000 0.000000
							CHANNELS 3 Zrotation Yrotation Xrotation 
							End Site
							{
								OFFSET 4.106464 0.000000 0.000000
							}
						}
					}
				}
			}
			JOINT rCollar
			{
				OFFSET -3.558935 6.707223 -0.8212930
				CHANNELS 3 Yrotation Zrotation Xrotation 
				JOINT rShldr
				{
					OFFSET -3.148289 0.000000 0.000000
					CHANNELS 3 Zrotation Yrotation Xrotation 
					JOINT rForeArm
					{
						OFFSET -10.26616 0.000000 0.000000
						CHANNELS 3 Yrotation Zrotation Xrotation 
						JOINT rHand
						{
							OFFSET -8.349810 0.000000 0.000000
							CHANNELS 3 Zrotation Yrotation Xrotation 
							End Site
							{
								OFFSET -4.106464 0.000000 0.000000
							}
						}
					}
				}
			}
		}
	}
	JOINT lThigh
	{
		OFFSET 5.338403 -1.642589 1.368821
		CHANNELS 3 Xrotation Zrotation Yrotation 
		JOINT lShin
		{
			OFFSET -2.053232 -20.12167 0.000000
			CHANNELS 3 Xrotation Zrotation Yrotation 
			JOINT lFoot
			{
				OFFSET 0.000000 -19.30038 -1.231939
				CHANNELS 3 Xrotation Yrotation Zrotation 
				End Site
				{
					OFFSET 0.000000 -2.463878 4.653993
				}
			}
		}
	}
	JOINT rThigh
	{
		OFFSET -5.338403 -1.642589 1.368821
		CHANNELS 3 Xrotation Zrotation Yrotation 
		JOINT rShin
		{
			OFFSET 2.053232 -20.12167 0.000000
			CHANNELS 3 Xrotation Zrotation Yrotation 
			JOINT rFoot
			{
				OFFSET 0.000000 -19.30038 -1.231939
				CHANNELS 3 Xrotation Yrotation Zrotation 
				End Site
				{
					OFFSET 0.000000 -2.463878 4.653993
				}
			}
		}
	}
}
MOTION
Frames:	18
Frame Time:	0.03333333
0.000000 43.52852 0.000000 0.000000 0.000000 0.000000 0.000000 0.000000 0.000000 0.000000 0.000000 0.000000 0.000000 0.000000 0.000000 0.000000 0.000000 0.000000 0.000000 0.000000 0.000000 0.000000 0.000000 0.000000 0.000000 0.000000 0.000000 0.000000 0.000000 0.000000 0.000000 0.000000 0.000000 0.000000 0.000000 0.000000 0.000000 0.000000 0.000000 0.000000 0.000000 0.000000 0.000000 0.000000 0.000000 0.000000 0.000000 0.000000 0.000000 0.000000 0.000000 0.000000 0.000000 0.000000 0.000000 0.000000 0.000000 0.000000 0.000000 0.000000 
0.000000 38.00000 0.000000 1.000000 0.000000 0.000000 1.000000 0.000000 0.000000 1.000000 0.000000 0.000000 1.000000 0.000000 0.000000 1.000000 0.000000 0.000000 0.000000 0.000000 1.000000 -90.00000 -139.0000 0.000000 -30.00000 0.000000 0.000000 0.000000 0.000000 1.000000 0.000000 0.000000 1.000000 74.00000 -41.00000 0.000000 30.00000 0.000000 0.000000 0.000000 0.000000 1.000000 19.00000 0.000000 0.000000 8.000000 0.000000 0.000000 -22.00000 0.000000 0.000000 -28.00000 0.000000 0.000000 8.000000 0.000000 0.000000 13.00000 0.000000 0.000000 
0.000000 39.66667 0.000000 1.000000 0.000000 0.000000 1.000000 0.000000 0.000000 -0.5000000 0.000000 0.000000 1.000000 0.000000 0.000000 1.000000 0.000000 0.000000 0.000000 0.000000 1.000000 -87.33334 -113.8750 0.000000 -30.00000 0.000000 0.000000 0.000000 0.000000 1.000000 0.000000 0.000000 1.000000 74.00000 -34.87500 0.000000 30.00000 0.000000 0.000000 0.000000 0.000000 1.000000 15.50000 0.000000 0.000000 8.000000 0.000000 0.000000 -13.33333 0.000000 0.000000 -23.66667 0.000000 0.000000 8.000000 0.000000 0.000000 15.83333 0.000000 0.000000 
0.000000 41.33333 0.000000 1.000000 0.000000 0.000000 1.000000 0.000000 0.000000 -2.000000 0.000000 0.000000 1.000000 0.000000 0.000000 1.000000 0.000000 0.000000 0.000000 0.000000 1.000000 -84.66666 -88.75000 0.000000 -30.00000 0.000000 0.000000 0.000000 0.000000 1.000000 0.000000 0.000000 1.000000 74.00000 -28.75000 0.000000 30.00000 0.000000 0.000000 0.000000 0.000000 1.000000 12.00000 0.000000 0.000000 8.000000 0.000000 0.000000 -4.666667 0.000000 0.000000 -19.33333 0.000000 0.000000 8.000000 0.000000 0.000000 18.66667 0.000000 0.000000 
0.000000 43.00000 0.000000 1.000000 0.000000 0.000000 1.000000 0.000000 0.000000 -3.500000 0.000000 0.000000 1.000000 0.000000 0.000000 1.000000 0.000000 0.000000 0.000000 0.000000 1.000000 -82.00000 -63.62500 0.000000 -30.00000 0.000000 0.000000 0.000000 0.000000 1.000000 0.000000 0.000000 1.000000 74.00000 -22.62500 0.000000 30.00000 0.000000 0.000000 0.000000 0.000000 1.000000 8.500000 0.000000 0.000000 8.000000 0.000000 0.000000 4.000000 0.000000 0.000000 -15.00000 0.000000 0.000000 8.000000 0.000000 0.000000 21.50000 0.000000 0.000000 
0.000000 44.66667 0.000000 1.000000 0.000000 0.000000 1.000000 0.000000 0.000000 -5.000000 0.000000 0.000000 1.000000 0.000000 0.000000 1.000000 0.000000 0.000000 0.000000 0.000000 1.000000 -79.33334 -38.50000 0.000000 -30.00000 0.000000 0.000000 0.000000 0.000000 1.000000 0.000000 0.000000 1.000000 74.00000 -16.50000 0.000000 30.00000 0.000000 0.000000 0.000000 0.000000 1.000000 5.000000 0.000000 0.000000 8.000000 0.000000 0.000000 12.66667 0.000000 0.000000 -10.66667 0.000000 0.000000 8.000000 0.000000 0.000000 24.33333 0.000000 0.000000 
0.000000 46.33333 0.000000 1.000000 0.000000 0.000000 1.000000 0.000000 0.000000 -6.500000 0.000000 0.000000 1.000000 0.000000 0.000000 1.000000 0.000000 0.000000 0.000000 0.000000 1.000000 -76.66666 -13.37500 0.000000 -30.00000 0.000000 0.000000 0.000000 0.000000 1.000000 0.000000 0.000000 1.000000 74.00000 -10.37500 0.000000 30.00000 0.000000 0.000000 0.000000 0.000000 1.000000 1.500000 0.000000 0.000000 8.000000 0.000000 0.000000 21.33333 0.000000 0.000000 -6.333333 0.000000 0.000000 8.000000 0.000000 0.000000 27.16667 0.000000 0.000000 
0.000000 48.00000 0.000000 1.000000 0.000000 0.000000 1.000000 0.000000 0.000000 -8.000000 0.000000 0.000000 1.000000 0.000000 0.000000 1.000000 0.000000 0.000000 0.000000 0.000000 1.000000 -74.00000 11.75000 0.000000 -30.00000 0.000000 0.000000 0.000000 0.000000 1.000000 0.000000 0.000000 1.000000 74.00000 -4.250000 0.000000 30.00000 0.000000 0.000000 0.000000 0.000000 1.000000 -2.000000 0.000000 0.000000 8.000000 0.000000 0.000000 30.00000 0.000000 0.000000 -2.000000 0.000000 0.000000 8.000000 0.000000 0.000000 30.00000 0.000000 0.000000 
0.000000 46.57143 0.000000 1.000000 0.000000 0.000000 1.000000 0.000000 0.000000 -6.714286 0.000000 0.000000 1.000000 0.000000 0.000000 1.000000 0.000000 0.000000 0.000000 0.000000 1.000000 -74.00000 15.92857 0.000000 -30.00000 0.000000 0.000000 0.000000 0.000000 1.000000 0.000000 0.000000 1.000000 76.28571 16.21428 0.000000 30.00000 0.000000 0.000000 0.000000 0.000000 1.000000 -5.714286 0.000000 0.000000 8.000000 0.000000 0.000000 27.57143 0.000000 0.000000 1.000000 0.000000 0.000000 8.000000 0.000000 0.000000 22.57143 0.000000 0.000000 
0.000000 45.14286 0.000000 1.000000 0.000000 0.000000 1.000000 0.000000 0.000000 -5.428571 0.000000 0.000000 1.000000 0.000000 0.000000 1.000000 0.000000 0.000000 0.000000 0.000000 1.000000 -74.00000 20.10714 0.000000 -30.00000 0.000000 0.000000 0.000000 0.000000 1.000000 0.000000 0.000000 1.000000 78.57143 36.67857 0.000000 30.00000 0.000000 0.000000 0.000000 0.000000 1.000000 -9.428572 0.000000 0.000000 8.000000 0.000000 0.000000 25.14286 0.000000 0.000000 4.000000 0.000000 0.000000 8.000000 0.000000 0.000000 15.14286 0.000000 0.000000 
0.000000 43.71429 0.000000 1.000000 0.000000 0.000000 1.000000 0.000000 0.000000 -4.142857 0.000000 0.000000 1.000000 0.000000 0.000000 1.000000 0.000000 0.000000 0.000000 0.000000 1.000000 -74.00000 24.28572 0.000000 -30.00000 0.000000 0.000000 0.000000 0.000000 1.000000 0.000000 0.000000 1.000000 80.85714 57.14286 0.000000 30.00000 0.000000 0.000000 0.000000 0.000000 1.000000 -13.14286 0.000000 0.000000 8.000000 0.000000 0.000000 22.71428 0.000000 0.000000 7.000000 0.000000 0.000000 8.000000 0.000000 0.000000 7.714286 0.000000 0.000000 
0.000000 42.28571 0.000000 1.000000 0.000000 0.000000 1.000000 0.000000 0.000000 -2.857143 0.000000 0.000000 1.000000 0.000000 0.000000 1.000000 0.000000 0.000000 0.000000 0.000000 1.000000 -74.00000 28.46428 0.000000 -30.00000 0.000000 0.000000 0.000000 0.000000 1.000000 0.000000 0.000000 1.000000 83.14286 77.60714 0.000000 30.00000 0.000000 0.000000 0.000000 0.000000 1.000000 -16.85714 0.000000 0.000000 8.000000 0.000000 0.000000 20.28572 0.000000 0.000000 10.00000 0.000000 0.000000 8.000000 0.000000 0.000000 0.2857143 0.000000 0.000000 
0.000000 40.85714 0.000000 1.000000 0.000000 0.000000 1.000000 0.000000 0.000000 -1.571429 0.000000 0.000000 1.000000 0.000000 0.000000 1.000000 0.000000 0.000000 0.000000 0.000000 1.000000 -74.00000 32.64286 0.000000 -30.00000 0.000000 0.000000 0.000000 0.000000 1.000000 0.000000 0.000000 1.000000 85.42857 98.07143 0.000000 30.00000 0.000000 0.000000 0.000000 0.000000 1.000000 -20.57143 0.000000 0.000000 8.000000 0.000000 0.000000 17.85714 0.000000 0.000000 13.00000 0.000000 0.000000 8.000000 0.000000 0.000000 -7.142857 0.000000 0.000000 
0.000000 39.42857 0.000000 1.000000 0.000000 0.000000 1.000000 0.000000 0.000000 -0.2857143 0.000000 0.000000 1.000000 0.000000 0.000000 1.000000 0.000000 0.000000 0.000000 0.000000 1.000000 -74.00000 36.82143 0.000000 -30.00000 0.000000 0.000000 0.000000 0.000000 1.000000 0.000000 0.000000 1.000000 87.71429 118.5357 0.000000 30.00000 0.000000 0.000000 0.000000 0.000000 1.000000 -24.28572 0.000000 0.000000 8.000000 0.000000 0.000000 15.42857 0.000000 0.000000 16.00000 0.000000 0.000000 8.000000 0.000000 0.000000 -14.57143 0.000000 0.000000 
0.000000 38.00000 0.000000 1.000000 0.000000 0.000000 1.000000 0.000000 0.000000 1.000000 0.000000 0.000000 1.000000 0.000000 0.000000 1.000000 0.000000 0.000000 0.000000 0.000000 1.000000 -74.00000 41.00000 0.000000 -30.00000 0.000000 0.000000 0.000000 0.000000 1.000000 0.000000 0.000000 1.000000 90.00000 139.0000 0.000000 30.00000 0.000000 0.000000 0.000000 0.000000 1.000000 -28.00000 0.000000 0.000000 8.000000 0.000000 0.000000 13.00000 0.000000 0.000000 19.00000 0.000000 0.000000 8.000000 0.000000 0.000000 -22.00000 0.000000 0.000000 
0.000000 39.11111 0.000000 1.000000 0.000000 0.000000 1.000000 0.000000 0.000000 0.000000 0.000000 0.000000 1.000000 0.000000 0.000000 1.000000 0.000000 0.000000 0.000000 0.000000 1.000000 -74.00000 37.75000 0.000000 -30.00000 0.000000 0.000000 0.000000 0.000000 1.000000 0.000000 0.000000 1.000000 88.22222 123.0833 0.000000 30.00000 0.000000 0.000000 0.000000 0.000000 1.000000 -25.11111 0.000000 0.000000 8.000000 0.000000 0.000000 14.88889 0.000000 0.000000 16.66667 0.000000 0.000000 8.000000 0.000000 0.000000 -16.22222 0.000000 0.000000 
0.000000 40.22222 0.000000 1.000000 0.000000 0.000000 1.000000 0.000000 0.000000 -1.000000 0.000000 0.000000 1.000000 0.000000 0.000000 1.000000 0.000000 0.000000 0.000000 0.000000 1.000000 -74.00000 34.50000 0.000000 -30.00000 0.000000 0.000000 0.000000 0.000000 1.000000 0.000000 0.000000 1.000000 86.44444 107.1667 0.000000 30.00000 0.000000 0.000000 0.000000 0.000000 1.000000 -22.22222 0.000000 0.000000 8.000000 0.000000 0.000000 16.77778 0.000000 0.000000 14.33333 0.000000 0.000000 8.000000 0.000000 0.000000 -10.44444 0.000000 0.000000 
0.000000 41.33333 0.000000 1.000000 0.000000 0.000000 1.000000 0.000000 0.000000 -2.000000 0.000000 0.000000 1.000000 0.000000 0.000000 1.000000 0.000000 0.000000 0.000000 0.000000 1.000000 -74.00000 31.25000 0.000000 -30.00000 0.000000 0.000000 0.000000 0.000000 1.000000 0.000000 0.000000 1.000000 84.66666 91.25000 0.000000 30.00000 0.000000 0.000000 0.000000 0.000000 1.000000 -19.33333 0.000000 0.000000 8.000000 0.000000 0.000000 18.66667 0.000000 0.000000 12.00000 0.000000 0.000000 8.000000 0.000000 0.000000 -4.666667 0.000000 0.000000 
